<svg width="13" height="13" viewBox="0 0 13 13" fill="none" xmlns="http://www.w3.org/2000/svg">
<mask id="path-1-inside-1" fill="white">
<path d="M9.53488 0.427734H3.46345C1.78687 0.427734 0.427734 1.78687 0.427734 3.46345V9.53488C0.427734 11.2115 1.78687 12.5706 3.46345 12.5706H9.53488C11.2115 12.5706 12.5706 11.2115 12.5706 9.53488V3.46345C12.5706 1.78687 11.2115 0.427734 9.53488 0.427734Z"/>
<path d="M8.92773 6.11666C9.00266 6.62195 8.91636 7.13801 8.68109 7.59142C8.44582 8.04484 8.07357 8.41252 7.61729 8.64218C7.16101 8.87184 6.64393 8.95177 6.1396 8.87062C5.63527 8.78947 5.16937 8.55136 4.80817 8.19015C4.44697 7.82895 4.20886 7.36305 4.1277 6.85872C4.04655 6.35439 4.12649 5.83731 4.35615 5.38103C4.58581 4.92475 4.95349 4.55251 5.4069 4.31724C5.86032 4.08197 6.37637 3.99566 6.88166 4.07059C7.39708 4.14702 7.87425 4.38719 8.24269 4.75563C8.61113 5.12407 8.8513 5.60124 8.92773 6.11666Z"/>
<path d="M10.7492 2.85631C10.7492 3.19162 10.4773 3.46345 10.142 3.46345C9.8067 3.46345 9.53488 3.19162 9.53488 2.85631C9.53488 2.52099 9.8067 2.24916 10.142 2.24916C10.4773 2.24916 10.7492 2.52099 10.7492 2.85631Z"/>
</mask>
<path d="M8.92773 6.11666L7.93855 6.26335L8.92773 6.11666ZM6.88166 4.07059L6.73498 5.05977L6.88166 4.07059ZM3.46345 1.42773H9.53488V-0.572266H3.46345V1.42773ZM9.53488 1.42773C10.6592 1.42773 11.5706 2.33915 11.5706 3.46345H13.5706C13.5706 1.23458 11.7637 -0.572266 9.53488 -0.572266V1.42773ZM11.5706 3.46345V9.53488H13.5706V3.46345H11.5706ZM11.5706 9.53488C11.5706 10.6592 10.6592 11.5706 9.53488 11.5706V13.5706C11.7637 13.5706 13.5706 11.7637 13.5706 9.53488H11.5706ZM9.53488 11.5706H3.46345V13.5706H9.53488V11.5706ZM3.46345 11.5706C2.33915 11.5706 1.42773 10.6592 1.42773 9.53488H-0.572266C-0.572266 11.7637 1.23458 13.5706 3.46345 13.5706V11.5706ZM1.42773 9.53488V3.46345H-0.572266V9.53488H1.42773ZM1.42773 3.46345C1.42773 2.33915 2.33915 1.42773 3.46345 1.42773V-0.572266C1.23459 -0.572266 -0.572266 1.23459 -0.572266 3.46345H1.42773ZM7.93855 6.26335C7.98263 6.56058 7.93186 6.86414 7.79346 7.13085L9.56871 8.05199C9.90085 7.41188 10.0227 6.68333 9.91692 5.96998L7.93855 6.26335ZM7.79346 7.13085C7.65507 7.39756 7.4361 7.61385 7.1677 7.74894L8.06688 9.53541C8.71104 9.21119 9.23657 8.69211 9.56871 8.05199L7.79346 7.13085ZM7.1677 7.74894C6.8993 7.88404 6.59514 7.93106 6.29847 7.88332L5.98073 9.85792C6.69273 9.97249 7.42272 9.85964 8.06688 9.53541L7.1677 7.74894ZM6.29847 7.88332C6.00181 7.83558 5.72775 7.69552 5.51528 7.48305L4.10107 8.89726C4.611 9.40719 5.26874 9.74335 5.98073 9.85792L6.29847 7.88332ZM5.51528 7.48305C5.30281 7.27057 5.16274 6.99651 5.115 6.69985L3.1404 7.01759C3.25497 7.72959 3.59113 8.38733 4.10107 8.89726L5.51528 7.48305ZM5.115 6.69985C5.06727 6.40319 5.11429 6.09902 5.24938 5.83062L3.46291 4.93144C3.13869 5.5756 3.02584 6.30559 3.1404 7.01759L5.115 6.69985ZM5.24938 5.83062C5.38448 5.56222 5.60076 5.34325 5.86747 5.20486L4.94633 3.42961C4.30622 3.76176 3.78714 4.28728 3.46291 4.93144L5.24938 5.83062ZM5.86747 5.20486C6.13419 5.06647 6.43775 5.0157 6.73498 5.05977L7.02835 3.08141C6.31499 2.97563 5.58645 3.09747 4.94633 3.42961L5.86747 5.20486ZM6.73498 5.05977C7.03817 5.10473 7.31885 5.24601 7.53558 5.46274L8.9498 4.04853C8.42965 3.52838 7.75599 3.18931 7.02835 3.08141L6.73498 5.05977ZM7.53558 5.46274C7.75231 5.67947 7.89359 5.96016 7.93855 6.26335L9.91692 5.96998C9.80902 5.24233 9.46995 4.56868 8.9498 4.04853L7.53558 5.46274ZM9.74916 2.85631C9.74916 2.63934 9.92505 2.46345 10.142 2.46345V4.46345C11.0296 4.46345 11.7492 3.74391 11.7492 2.85631H9.74916ZM10.142 2.46345C10.359 2.46345 10.5349 2.63934 10.5349 2.85631H8.53488C8.53488 3.74391 9.25442 4.46345 10.142 4.46345V2.46345ZM10.5349 2.85631C10.5349 3.07327 10.359 3.24916 10.142 3.24916V1.24916C9.25442 1.24916 8.53488 1.96871 8.53488 2.85631H10.5349ZM10.142 3.24916C9.92505 3.24916 9.74916 3.07327 9.74916 2.85631H11.7492C11.7492 1.96871 11.0296 1.24916 10.142 1.24916V3.24916Z" fill="#149A9B" mask="url(#path-1-inside-1)"/>
</svg>
