<svg width="15" height="14" viewBox="0 0 15 14" fill="none" xmlns="http://www.w3.org/2000/svg">
<path d="M9.92773 5.07059C10.8939 5.07059 11.8205 5.45439 12.5036 6.13756C13.1868 6.82073 13.5706 7.7473 13.5706 8.71345V12.9634H11.142V8.71345C11.142 8.3914 11.0141 8.08254 10.7864 7.85482C10.5586 7.6271 10.2498 7.49916 9.92773 7.49916C9.60569 7.49916 9.29683 7.6271 9.0691 7.85482C8.84138 8.08254 8.71345 8.3914 8.71345 8.71345V12.9634H6.28488V8.71345C6.28488 7.7473 6.66868 6.82073 7.35185 6.13756C8.03501 5.45439 8.96159 5.07059 9.92773 5.07059Z" stroke="#149A9B" stroke-linecap="round" stroke-linejoin="round"/>
<path d="M3.85631 5.67773H1.42773V12.9634H3.85631V5.67773Z" stroke="#149A9B" stroke-linecap="round" stroke-linejoin="round"/>
<path d="M2.64202 3.85631C3.31265 3.85631 3.85631 3.31265 3.85631 2.64202C3.85631 1.97139 3.31265 1.42773 2.64202 1.42773C1.97139 1.42773 1.42773 1.97139 1.42773 2.64202C1.42773 3.31265 1.97139 3.85631 2.64202 3.85631Z" stroke="#149A9B" stroke-linecap="round" stroke-linejoin="round"/>
</svg>
