<svg width="15" height="13" viewBox="0 0 15 13" fill="none" xmlns="http://www.w3.org/2000/svg">
<path d="M14.1794 1.04126C13.598 1.45137 12.9543 1.76504 12.273 1.97019C11.9073 1.54975 11.4214 1.25175 10.8808 1.1165C10.3403 0.981252 9.77125 1.01527 9.25067 1.21397C8.7301 1.41266 8.28311 1.76643 7.97015 2.22745C7.65719 2.68846 7.49337 3.23447 7.50084 3.79162V4.39876C6.43386 4.42643 5.37661 4.18979 4.42324 3.70993C3.46986 3.23006 2.64996 2.52186 2.03655 1.6484C2.03655 1.6484 -0.39202 7.11269 5.07227 9.54126C3.82187 10.39 2.33233 10.8156 0.822266 10.7555C6.28655 13.7913 12.9651 10.7555 12.9651 3.7734C12.9646 3.60429 12.9483 3.43559 12.9166 3.26948C13.5362 2.65838 13.9735 1.88684 14.1794 1.04126V1.04126Z" stroke="#149A9B" stroke-linecap="round" stroke-linejoin="round"/>
</svg>
