<svg width="38" height="38" viewBox="0 0 38 38" fill="none" xmlns="http://www.w3.org/2000/svg">
<path d="M19 38C29.4934 38 38 29.4934 38 19C38 8.50659 29.4934 0 19 0C8.50659 0 0 8.50659 0 19C0 29.4934 8.50659 38 19 38Z" fill="#282F65"/>
<path d="M19 33.25C11.1625 33.25 4.75 26.8375 4.75 19C4.75 11.1625 11.1625 4.75 19 4.75C26.8375 4.75 33.25 11.1625 33.25 19C33.25 26.8375 26.8375 33.25 19 33.25Z" fill="#F2F2F2"/>
<path d="M19 28.5C13.775 28.5 9.5 24.225 9.5 19C9.5 13.775 13.775 9.5 19 9.5C24.225 9.5 28.5 13.775 28.5 19C28.5 24.225 24.225 28.5 19 28.5Z" fill="#580273"/>
<path d="M19 23.75C16.3875 23.75 14.25 21.6125 14.25 19C14.25 16.3875 16.3875 14.25 19 14.25C21.6125 14.25 23.75 16.3875 23.75 19C23.75 21.6125 21.6125 23.75 19 23.75Z" fill="#CDD6E0"/>
<path d="M19 23.75C16.3875 23.75 14.25 21.6125 14.25 19C14.25 16.3875 16.3875 14.25 19 14.25C21.6125 14.25 23.75 16.3875 23.75 19C23.75 21.6125 21.6125 23.75 19 23.75Z" fill="#FFD15C"/>
<path opacity="0.2" d="M37.8429 21.376C37.5262 23.751 36.8137 25.9677 35.7054 28.026L34.6762 27.6302L33.3304 24.7802L19.0804 19.6344C18.4471 19.3969 18.1304 18.6844 18.3679 18.0511C18.6054 17.4178 19.3179 17.1011 19.9512 17.3386L34.2012 22.4844L37.0512 21.1386L37.8429 21.376Z" fill="#334A5E"/>
<path d="M31.9825 7.67891L20.345 19.3164C19.87 19.7914 19.0783 19.7914 18.6033 19.3164C18.1283 18.8414 18.1283 18.0497 18.6033 17.5747L30.32 6.01641C30.795 5.54141 31.5867 5.54141 32.0617 6.01641C32.4575 6.49141 32.4575 7.20391 31.9825 7.67891Z" fill="#026565"/>
<path d="M33.091 4.90831L29.3701 8.62919V3.72081L33.091 0V4.90831Z" fill="#F79E1B"/>
<path d="M34.2785 8.62908L37.9993 4.9082H33.091L29.3701 8.62908H34.2785Z" fill="#F79E1B"/>
</svg>
