<svg width="42" height="42" viewBox="0 0 42 42" fill="none" xmlns="http://www.w3.org/2000/svg">
<g clip-path="url(#clip0)">
<path d="M13.4619 21C13.4619 11.4687 19.8156 3.425 28.5156 0.859707C26.6302 0.303843 24.6352 0 22.5693 0C10.9714 0 1.56934 9.40212 1.56934 21C1.56934 32.5986 10.9715 42.0001 22.5694 42.0001C24.6346 42.0001 26.6302 41.6969 28.5157 41.141C19.8151 38.5763 13.4619 30.532 13.4619 21Z" fill="#7CBBF6"/>
<path d="M29.1359 12.8327C34.2626 12.8327 38.5899 16.2504 39.9693 20.9308C40.2679 19.9169 40.4312 18.8433 40.4312 17.7322C40.4312 11.4946 35.3741 6.43817 29.1358 6.4375C22.8975 6.4375 17.8398 11.4939 17.8398 17.7316C17.8398 18.8426 18.0039 19.9162 18.3031 20.9301C19.6833 16.2504 24.0099 12.8334 29.1359 12.8327Z" fill="#16D76F"/>
<path d="M33.0901 24.6429C33.0901 28.4557 30.5471 31.6739 27.0664 32.6996C27.8205 32.9221 28.6184 33.0435 29.446 33.0435C34.0844 33.0435 37.8466 29.2825 37.8466 24.6422C37.8466 20.0019 34.0863 16.2402 29.446 16.2402C28.6204 16.2402 27.8205 16.361 27.0664 16.5842C30.5471 17.6105 33.0901 20.8288 33.0901 24.6429Z" fill="#79129A"/>
</g>
<defs>
<clipPath id="clip0">
<rect width="42" height="42" fill="white"/>
</clipPath>
</defs>
</svg>
