<svg width="46" height="46" viewBox="0 0 46 46" fill="none" xmlns="http://www.w3.org/2000/svg">
<path d="M37.7853 11.5008C37.7853 14.2228 31.1655 16.4294 22.9996 16.4294C14.8337 16.4294 8.21387 14.2228 8.21387 11.5008M37.7853 11.5008C37.7853 8.77886 31.1655 6.57227 22.9996 6.57227C14.8337 6.57227 8.21387 8.77886 8.21387 11.5008M37.7853 11.5008V34.5008C37.7853 37.228 31.2139 39.4294 22.9996 39.4294C14.7853 39.4294 8.21387 37.228 8.21387 34.5008V11.5008M37.7853 23.0008C37.7853 25.728 31.2139 27.9294 22.9996 27.9294C14.7853 27.9294 8.21387 25.728 8.21387 23.0008" stroke="#149A9B" stroke-width="2" stroke-linecap="round" stroke-linejoin="round"/>
</svg>
