<svg width="27" height="32" viewBox="0 0 27 32" fill="none" xmlns="http://www.w3.org/2000/svg">
<path d="M13.5 5.25C11.1794 5.25 8.95376 6.17187 7.31282 7.81282C5.67187 9.45376 4.75 11.6794 4.75 14V20.25C4.75 21.2446 4.35491 22.1984 3.65165 22.9017C2.94839 23.6049 1.99456 24 1 24H26C25.0054 24 24.0516 23.6049 23.3483 22.9017C22.6451 22.1984 22.25 21.2446 22.25 20.25V14C22.25 11.6794 21.3281 9.45376 19.6872 7.81282C18.0462 6.17187 15.8206 5.25 13.5 5.25ZM13.5 5.25V1.5M15.6625 29C15.4427 29.3788 15.1273 29.6933 14.7478 29.9119C14.3683 30.1305 13.938 30.2456 13.5 30.2456C13.062 30.2456 12.6317 30.1305 12.2522 29.9119C11.8727 29.6933 11.5573 29.3788 11.3375 29" stroke="#149A9B" stroke-width="2" stroke-linecap="round" stroke-linejoin="round"/>
</svg>
