<svg width="36" height="36" viewBox="0 0 36 36" fill="none" xmlns="http://www.w3.org/2000/svg">
<path d="M0.5 4C0.5 2.067 2.067 0.5 4 0.5H32C33.933 0.5 35.5 2.067 35.5 4V32C35.5 33.933 33.933 35.5 32 35.5H4C2.067 35.5 0.5 33.933 0.5 32V4Z" fill="white" stroke="#323438"/>
<path d="M22.875 14.25C22.9745 14.25 23.0698 14.2895 23.1402 14.3598C23.2105 14.4302 23.25 14.5255 23.25 14.625V21.375C23.25 21.4745 23.2105 21.5698 23.1402 21.6402C23.0698 21.7105 22.9745 21.75 22.875 21.75H13.125C13.0255 21.75 12.9302 21.7105 12.8598 21.6402C12.7895 21.5698 12.75 21.4745 12.75 21.375V14.625C12.75 14.5255 12.7895 14.4302 12.8598 14.3598C12.9302 14.2895 13.0255 14.25 13.125 14.25H22.875ZM13.125 13.5C12.8266 13.5 12.5405 13.6185 12.3295 13.8295C12.1185 14.0405 12 14.3266 12 14.625V21.375C12 21.6734 12.1185 21.9595 12.3295 22.1705C12.5405 22.3815 12.8266 22.5 13.125 22.5H22.875C23.1734 22.5 23.4595 22.3815 23.6705 22.1705C23.8815 21.9595 24 21.6734 24 21.375V14.625C24 14.3266 23.8815 14.0405 23.6705 13.8295C23.4595 13.6185 23.1734 13.5 22.875 13.5H13.125Z" fill="#FB7106"/>
<path d="M14.25 18.375C14.25 18.2755 14.2895 18.1802 14.3598 18.1098C14.4302 18.0395 14.5255 18 14.625 18H21.375C21.4745 18 21.5698 18.0395 21.6402 18.1098C21.7105 18.1802 21.75 18.2755 21.75 18.375C21.75 18.4745 21.7105 18.5698 21.6402 18.6402C21.5698 18.7105 21.4745 18.75 21.375 18.75H14.625C14.5255 18.75 14.4302 18.7105 14.3598 18.6402C14.2895 18.5698 14.25 18.4745 14.25 18.375ZM14.25 19.875C14.25 19.7755 14.2895 19.6802 14.3598 19.6098C14.4302 19.5395 14.5255 19.5 14.625 19.5H19.125C19.2245 19.5 19.3198 19.5395 19.3902 19.6098C19.4605 19.6802 19.5 19.7755 19.5 19.875C19.5 19.9745 19.4605 20.0698 19.3902 20.1402C19.3198 20.2105 19.2245 20.25 19.125 20.25H14.625C14.5255 20.25 14.4302 20.2105 14.3598 20.1402C14.2895 20.0698 14.25 19.9745 14.25 19.875ZM14.25 16.125C14.25 16.0255 14.2895 15.9302 14.3598 15.8598C14.4302 15.7895 14.5255 15.75 14.625 15.75H21.375C21.4745 15.75 21.5698 15.7895 21.6402 15.8598C21.7105 15.9302 21.75 16.0255 21.75 16.125V16.875C21.75 16.9745 21.7105 17.0698 21.6402 17.1402C21.5698 17.2105 21.4745 17.25 21.375 17.25H14.625C14.5255 17.25 14.4302 17.2105 14.3598 17.1402C14.2895 17.0698 14.25 16.9745 14.25 16.875V16.125Z" fill="#FB7106"/>
</svg>
