<svg width="78" height="78" viewBox="0 0 78 78" fill="none" xmlns="http://www.w3.org/2000/svg">
<path d="M66.5771 11.4227C59.211 4.05676 49.4173 0 39 0C28.5826 0 18.7889 4.05676 11.4227 11.4227C4.05676 18.7889 0 28.5827 0 39C0 49.4173 4.05676 59.211 11.4227 66.5771C18.7889 73.9432 28.5827 78 39 78C49.4173 78 59.211 73.9432 66.5771 66.5773C73.9432 59.211 78 49.4173 78 39C78 28.5827 73.9432 18.789 66.5771 11.4227ZM57.6326 29.7182L35.8375 51.5134C35.3913 51.9596 34.8064 52.1826 34.2217 52.1826C33.6369 52.1826 33.052 51.9596 32.6058 51.5134L20.3674 39.2751C19.475 38.3829 19.475 36.936 20.3674 36.0435C21.2597 35.151 22.7067 35.151 23.5991 36.0435L34.2217 46.6659L54.4009 26.4865C55.2932 25.5941 56.7401 25.5941 57.6326 26.4865C58.525 27.3789 58.525 28.8257 57.6326 29.7182Z" fill="#149A9B"/>
</svg>
