<svg width="48" height="48" viewBox="0 0 48 48" fill="none" xmlns="http://www.w3.org/2000/svg">
<path fill-rule="evenodd" clip-rule="evenodd" d="M0 4C0 1.79086 1.79086 0 4 0H44C46.2091 0 48 1.79086 48 4V44C48 46.2091 46.2091 48 44 48H4C1.79086 48 0 46.2091 0 44V4Z" fill="white"/>
<path d="M0.5 4C0.5 2.067 2.067 0.5 4 0.5H44C45.933 0.5 47.5 2.067 47.5 4V44C47.5 45.933 45.933 47.5 44 47.5H4C2.067 47.5 0.5 45.933 0.5 44V4Z" stroke="#E4E4E4" stroke-opacity="0.6"/>
<path d="M15.0286 17.4629L11.9068 26.7735C11.9068 26.7735 11.1139 22.835 11.0354 22.3405C9.2582 18.2855 6.63574 18.5114 6.63574 18.5114L9.72658 30.5395V30.5372H13.4843L18.6805 17.4629H15.0286Z" fill="#1565C0"/>
<path d="M18.0049 30.5395H21.4179L23.4816 17.4629H20.0258L18.0049 30.5395Z" fill="#1565C0"/>
<path d="M42.1593 17.4629H38.5679L32.9688 30.5395H36.3592L37.0582 28.672H41.333L41.6968 30.5395H44.8031L42.1593 17.4629ZM38.0044 26.1743L39.8625 21.2325L40.8349 26.1743H38.0044Z" fill="#1565C0"/>
<path d="M28.3237 21.2734C28.3237 20.553 28.9157 20.0168 30.6133 20.0168C31.7165 20.0168 32.9802 20.8181 32.9802 20.8181L33.5342 18.0732C33.5342 18.0732 31.9198 17.4609 30.3351 17.4609C26.7462 17.4609 24.8953 19.1775 24.8953 21.3506C24.8953 25.2808 29.6254 24.7422 29.6254 26.7608C29.6254 27.1067 29.3508 27.9068 27.381 27.9068C25.4052 27.9068 24.1011 27.1828 24.1011 27.1828L23.5127 29.8172C23.5127 29.8172 24.7764 30.5376 27.2181 30.5376C29.6658 30.5376 33.061 28.7068 33.061 26.0773C33.061 22.9139 28.3237 22.6856 28.3237 21.2734Z" fill="#1565C0"/>
<path d="M11.4938 24.5297L10.3454 18.8854C10.3454 18.8854 9.82593 17.6621 8.47547 17.6621C7.12501 17.6621 3.19727 17.6621 3.19727 17.6621C3.19727 17.6621 9.92698 19.6498 11.4938 24.5297Z" fill="#FFC107"/>
</svg>
