<svg width="36" height="36" viewBox="0 0 36 36" fill="none" xmlns="http://www.w3.org/2000/svg">
<path d="M0.5 4C0.5 2.067 2.067 0.5 4 0.5H32C33.933 0.5 35.5 2.067 35.5 4V32C35.5 33.933 33.933 35.5 32 35.5H4C2.067 35.5 0.5 33.933 0.5 32V4Z" fill="white" stroke="#323438"/>
<path d="M23.9431 16.5675C23.9999 16.4304 24.0147 16.2796 23.9857 16.1341C23.9568 15.9885 23.8853 15.8549 23.7803 15.75L20.0303 12L18.9698 13.0605L21.4396 15.5303H12.0001V17.0303H23.2501C23.3984 17.0303 23.5434 16.9863 23.6668 16.904C23.7901 16.8216 23.8863 16.7045 23.9431 16.5675ZM12.0571 18.993C12.0003 19.1301 11.9855 19.2809 12.0144 19.4264C12.0434 19.572 12.1149 19.7056 12.2198 19.8105L15.9698 23.5605L17.0303 22.5L14.5606 20.0303H24.0001V18.5303H12.7501C12.6017 18.5301 12.4567 18.574 12.3333 18.6564C12.21 18.7388 12.1138 18.8559 12.0571 18.993Z" fill="#149A9B"/>
</svg>
