<svg xmlns="http://www.w3.org/2000/svg"
  xmlns:xlink="http://www.w3.org/1999/xlink" xml:space="preserve" version="1.1" style="shape-rendering:geometricPrecision;text-rendering:geometricPrecision;image-rendering:optimizeQuality;" viewBox="0 0 64000 79998.75" x="0px" y="0px" fill-rule="evenodd" clip-rule="evenodd">
  <defs>
    <style type="text/css">
   
    .fil0 {fill:#149A9B}
   
    </style>
  </defs>
  <g>
    <path class="fil0" d="M8184 26213l-909 -803c-211,-187 -326,-461 -326,-780l0 -1698c0,-532 356,-964 793,-964l8203 0c437,0 793,432 793,964l0 1698c0,319 -114,593 -326,780l-908 803c-212,188 -327,462 -327,780l0 22087c0,318 114,592 327,780l908 803c211,187 326,461 326,780l0 1698c0,532 -356,964 -793,964l-8203 0c-437,0 -793,-432 -793,-964l0 -1698c0,-319 114,-593 326,-780l909 -803c211,-188 326,-462 326,-780l0 -22087c0,-318 -114,-592 -326,-780zm-6430 -12063l29000 -13715c820,-388 1672,-388 2492,0l29000 13715c1093,517 1754,1582 1754,2826l0 2016c0,570 -449,1035 -1000,1035l-62000 0c-551,0 -1000,-465 -1000,-1035l0 -2016c0,-1244 661,-2309 1754,-2826zm-1119 44641l1521 0c551,0 1000,-541 1000,-1204l0 -541c0,-622 422,-1131 938,-1131l55812 0c516,0 938,509 938,1131l0 541c0,663 449,1204 1000,1204l1521 0c349,0 635,344 635,765l0 3535c0,421 -286,765 -635,765l-62730 0c-349,0 -635,-344 -635,-765l0 -3535c0,-421 286,-765 635,-765zm31365 -32930c6947,0 12579,5632 12579,12579 0,6947 -5632,12579 -12579,12579 -6947,0 -12579,-5632 -12579,-12579 0,-6947 5632,-12579 12579,-12579zm-4897 9371c0,-2184 1444,-3850 3491,-4463l0 -1687c0,-328 268,-596 596,-596l1620 0c328,0 596,268 596,596l8 1625c389,98 764,244 1115,439 1279,713 2031,1950 2276,3375 31,177 -16,347 -132,485 -116,137 -276,212 -456,212l-1485 0c-266,0 -494,-170 -571,-424 -580,-1920 -4151,-2111 -4151,243 0,1284 1635,1758 2614,2115 2264,827 4273,1696 4273,4496 0,2184 -1443,3851 -3491,4464l0 1685c0,329 -268,597 -596,597l-1620 0c-328,0 -596,-268 -596,-597l-8 -1624c-389,-98 -764,-244 -1115,-439 -1280,-713 -2032,-1950 -2276,-3375 -31,-177 16,-347 132,-485 116,-138 275,-212 456,-212l1485 0c266,0 494,170 571,424 580,1920 4151,2110 4151,-243 0,-1359 -1877,-1844 -2901,-2220 -2170,-797 -3986,-1738 -3986,-4391zm4897 -28518c2330,0 4219,1889 4219,4219 0,2330 -1889,4219 -4219,4219 -2330,0 -4219,-1889 -4219,-4219 0,-2330 1889,-4219 4219,-4219zm16496 19499l-908 -803c-212,-187 -327,-461 -327,-780l0 -1698c0,-532 357,-964 793,-964l8204 0c437,0 793,432 793,964l0 1698c0,319 -115,593 -327,780l-908 803c-212,188 -327,462 -327,780l0 22087c0,318 115,592 327,780l908 803c212,187 327,461 327,780l0 1698c0,532 -356,964 -793,964l-8204 0c-436,0 -793,-432 -793,-964l0 -1698c0,-319 115,-593 327,-780l908 -803c212,-188 327,-462 327,-780l0 -22087c0,-318 -115,-592 -327,-780z"/>
  </g>
  <text x="0" y="64014" fill="#000000" font-size="5px" font-weight="bold" font-family="'Helvetica Neue', Helvetica, Arial-Unicode, Arial, Sans-serif">Created by popcornarts</text>
  <text x="0" y="64019" fill="#000000" font-size="5px" font-weight="bold" font-family="'Helvetica Neue', Helvetica, Arial-Unicode, Arial, Sans-serif">from the Noun Project</text>
</svg>