<svg width="53" height="53" viewBox="0 0 53 53" fill="none" xmlns="http://www.w3.org/2000/svg">
<g clip-path="url(#clip0)">
<path d="M16.8026 26.143C16.76 14.4173 24.5406 4.49322 35.2321 1.29838C32.9102 0.622978 30.4545 0.258109 27.9129 0.267354C13.6448 0.319254 2.1202 11.9281 2.1721 26.1962C2.224 40.4652 13.8329 51.9891 28.101 51.9372C30.6417 51.9279 33.0954 51.546 35.4125 50.8537C24.6972 47.7375 16.8453 37.8696 16.8026 26.143Z" fill="#7CBBF6"/>
<path d="M36.0475 16.026C42.3545 16.0031 47.6933 20.1883 49.4112 25.9401C49.7741 24.6914 49.9702 23.3699 49.9653 22.003C49.9374 14.3293 43.6933 8.13134 36.0188 8.15843C28.3442 8.18635 22.1447 14.4296 22.1726 22.1033C22.1776 23.4702 22.3842 24.7902 22.7569 26.0362C24.4339 20.2729 29.7413 16.0498 36.0475 16.026Z" fill="#16D76F"/>
<path d="M40.9657 30.5387C40.9828 35.2294 37.8687 39.1999 33.5912 40.4774C34.5199 40.7477 35.5021 40.8934 36.5202 40.8897C42.2265 40.869 46.8381 36.2252 46.8173 30.5166C46.7965 24.808 42.1536 20.1971 36.445 20.2179C35.4294 20.2216 34.4458 20.3737 33.5191 20.6516C37.8058 21.8987 40.9486 25.8465 40.9657 30.5387Z" fill="#79129A"/>
</g>
<defs>
<clipPath id="clip0">
<rect width="51.6701" height="51.6701" fill="white" transform="translate(0.147461 0.369141) rotate(-0.208413)"/>
</clipPath>
</defs>
</svg>
