<svg width="41" height="41" viewBox="0 0 41 41" fill="none" xmlns="http://www.w3.org/2000/svg">
<g clip-path="url(#clip0)">
<g clip-path="url(#clip1)">
<path d="M20.6968 36.7823C30.6846 36.7823 38.7813 28.6856 38.7813 18.6978C38.7813 8.70999 30.6846 0.613281 20.6968 0.613281C10.709 0.613281 2.6123 8.70999 2.6123 18.6978C2.6123 28.6856 10.709 36.7823 20.6968 36.7823Z" fill="#282F65"/>
<path d="M20.6972 32.2596C13.2373 32.2596 7.13379 26.156 7.13379 18.6962C7.13379 11.2363 13.2373 5.13281 20.6972 5.13281C28.157 5.13281 34.2605 11.2363 34.2605 18.6962C34.2605 26.156 28.157 32.2596 20.6972 32.2596Z" fill="#F2F2F2"/>
<path d="M20.6965 27.7407C15.7233 27.7407 11.6543 23.6717 11.6543 18.6985C11.6543 13.7253 15.7233 9.65625 20.6965 9.65625C25.6698 9.65625 29.7388 13.7253 29.7388 18.6985C29.7388 23.6717 25.6698 27.7407 20.6965 27.7407Z" fill="#580273"/>
<path d="M20.6969 23.218C18.2103 23.218 16.1758 21.1835 16.1758 18.6969C16.1758 16.2103 18.2103 14.1758 20.6969 14.1758C23.1835 14.1758 25.218 16.2103 25.218 18.6969C25.218 21.1835 23.1835 23.218 20.6969 23.218Z" fill="#CDD6E0"/>
<path d="M20.6969 23.218C18.2103 23.218 16.1758 21.1835 16.1758 18.6969C16.1758 16.2103 18.2103 14.1758 20.6969 14.1758C23.1835 14.1758 25.218 16.2103 25.218 18.6969C25.218 21.1835 23.1835 23.218 20.6969 23.218Z" fill="#FFD15C"/>
<path opacity="0.2" d="M38.6312 20.957C38.3298 23.2176 37.6516 25.3274 36.5967 27.2866L35.6171 26.9098L34.3361 24.1972L20.7728 19.2993C20.17 19.0732 19.8685 18.3951 20.0946 17.7923C20.3206 17.1895 20.9988 16.8881 21.6016 17.1141L35.165 22.012L37.8777 20.731L38.6312 20.957Z" fill="#334A5E"/>
<path d="M33.0541 7.92148L21.9773 18.9982C21.5252 19.4503 20.7717 19.4503 20.3196 18.9982C19.8674 18.5461 19.8674 17.7926 20.3196 17.3405L31.4717 6.33908C31.9238 5.88697 32.6773 5.88697 33.1294 6.33908C33.5062 6.7912 33.5062 7.46937 33.0541 7.92148Z" fill="#026565"/>
<path d="M34.11 5.28509L30.5684 8.82668V4.15481L34.11 0.613281V5.28509Z" fill="#F79E1B"/>
<path d="M35.2402 8.82675L38.7818 5.28516H34.11L30.5684 8.82675H35.2402Z" fill="#F79E1B"/>
</g>
</g>
<defs>
<clipPath id="clip0">
<rect width="39.6137" height="39.6137" fill="white" transform="translate(0.889648 0.613281)"/>
</clipPath>
<clipPath id="clip1">
<rect width="36.169" height="36.169" fill="white" transform="translate(2.6123 0.613281)"/>
</clipPath>
</defs>
</svg>
