<svg width="14" height="14" viewBox="0 0 14 14" fill="none" xmlns="http://www.w3.org/2000/svg">
<path d="M3.66667 6.4V4C3.66667 3.20435 4.01786 2.44129 4.64298 1.87868C5.2681 1.31607 6.11594 1 7 1C7.88405 1 8.7319 1.31607 9.35702 1.87868C9.98214 2.44129 10.3333 3.20435 10.3333 4V6.4M2.33333 6.4H11.6667C12.403 6.4 13 6.93726 13 7.6V11.8C13 12.4627 12.403 13 11.6667 13H2.33333C1.59695 13 1 12.4627 1 11.8V7.6C1 6.93726 1.59695 6.4 2.33333 6.4Z" stroke="#149A9B" stroke-linecap="round" stroke-linejoin="round"/>
</svg>
