<svg width="33" height="33" viewBox="0 0 33 33" fill="none" xmlns="http://www.w3.org/2000/svg">
<circle opacity="0.1" cx="16.5" cy="16.5" r="16.5" fill="#45C2C6"/>
<path d="M23 24V22.3333C23 21.4493 22.6576 20.6014 22.0481 19.9763C21.4386 19.3512 20.612 19 19.75 19H13.25C12.388 19 11.5614 19.3512 10.9519 19.9763C10.3424 20.6014 10 21.4493 10 22.3333V24M19.75 12.3333C19.75 14.1743 18.2949 15.6667 16.5 15.6667C14.7051 15.6667 13.25 14.1743 13.25 12.3333C13.25 10.4924 14.7051 9 16.5 9C18.2949 9 19.75 10.4924 19.75 12.3333Z" stroke="#149A9B" stroke-width="1.5" stroke-linecap="round" stroke-linejoin="round"/>
</svg>
