<svg width="28" height="28" viewBox="0 0 28 28" fill="none" xmlns="http://www.w3.org/2000/svg">
<circle opacity="0.1" cx="14" cy="14" r="14" fill="#FB7106"/>
<path d="M10.1069 12.822V10.1077C10.1069 9.20786 10.4643 8.34487 11.1006 7.70859C11.7369 7.0723 12.5999 6.71484 13.4997 6.71484C14.3996 6.71484 15.2625 7.0723 15.8988 7.70859C16.5351 8.34487 16.8926 9.20786 16.8926 10.1077V12.822M8.74972 12.822H18.2497C18.9993 12.822 19.6069 13.4296 19.6069 14.1791V18.9291C19.6069 19.6787 18.9993 20.2863 18.2497 20.2863H8.74972C8.00019 20.2863 7.39258 19.6787 7.39258 18.9291V14.1791C7.39258 13.4296 8.00019 12.822 8.74972 12.822Z" stroke="#FB7106" stroke-linecap="round" stroke-linejoin="round"/>
</svg>
