<svg width="28" height="28" viewBox="0 0 28 28" fill="none" xmlns="http://www.w3.org/2000/svg">
<circle opacity="0.1" cx="14" cy="14" r="14" fill="#580273"/>
<path d="M13.6667 7C12.3481 7 11.0592 7.39099 9.96287 8.12354C8.86654 8.85608 8.01206 9.89727 7.50747 11.1154C7.00289 12.3336 6.87087 13.6741 7.1281 14.9673C7.38534 16.2605 8.02027 17.4484 8.95262 18.3807C9.88497 19.3131 11.0729 19.948 12.3661 20.2052C13.6593 20.4625 14.9997 20.3304 16.2179 19.8259C17.4361 19.3213 18.4773 18.4668 19.2098 17.3705C19.9423 16.2741 20.3333 14.9852 20.3333 13.6667C20.3333 11.8986 19.631 10.2029 18.3807 8.95262C17.1305 7.70238 15.4348 7 13.6667 7ZM13.6667 19.5C12.5129 19.5 11.3851 19.1579 10.4258 18.5169C9.46656 17.8759 8.71888 16.9649 8.27737 15.899C7.83586 14.8331 7.72034 13.6602 7.94542 12.5286C8.1705 11.3971 8.72607 10.3577 9.54188 9.54188C10.3577 8.72607 11.3971 8.1705 12.5286 7.94542C13.6602 7.72034 14.8331 7.83586 15.899 8.27737C16.9649 8.71888 17.8759 9.46655 18.5169 10.4258C19.1579 11.3851 19.5 12.5129 19.5 13.6667C19.5 15.2138 18.8854 16.6975 17.7915 17.7915C16.6975 18.8854 15.2138 19.5 13.6667 19.5Z" fill="#580273"/>
<path d="M13.667 9.16797C12.777 9.16797 11.9069 9.43189 11.1669 9.92636C10.4269 10.4208 9.85013 11.1236 9.50954 11.9459C9.16894 12.7682 9.07983 13.673 9.25346 14.5459C9.42709 15.4188 9.85568 16.2206 10.485 16.8499C11.1144 17.4793 11.9162 17.9079 12.7891 18.0815C13.662 18.2551 14.5668 18.166 15.3891 17.8254C16.2113 17.4848 16.9141 16.9081 17.4086 16.168C17.9031 15.428 18.167 14.558 18.167 13.668C18.1659 12.4748 17.6914 11.3309 16.8478 10.4872C16.0041 9.64353 14.8601 9.16907 13.667 9.16797ZM13.667 17.5013C12.9088 17.5013 12.1677 17.2765 11.5373 16.8553C10.9069 16.4341 10.4156 15.8354 10.1255 15.1349C9.83532 14.4345 9.75941 13.6637 9.90732 12.9201C10.0552 12.1765 10.4203 11.4935 10.9564 10.9574C11.4925 10.4213 12.1756 10.0562 12.9191 9.90829C13.6627 9.76038 14.4335 9.83629 15.1339 10.1264C15.8344 10.4166 16.4331 10.9079 16.8543 11.5383C17.2755 12.1687 17.5003 12.9098 17.5003 13.668C17.4992 14.6843 17.095 15.6587 16.3764 16.3773C15.6577 17.096 14.6833 17.5002 13.667 17.5013Z" fill="#580273"/>
<path d="M13.6667 11.2969C13.1978 11.2969 12.7395 11.4359 12.3496 11.6964C11.9597 11.9569 11.6558 12.3272 11.4764 12.7604C11.2969 13.1936 11.25 13.6703 11.3415 14.1302C11.4329 14.5901 11.6587 15.0126 11.9903 15.3441C12.3219 15.6757 12.7443 15.9015 13.2042 15.993C13.6641 16.0845 14.1408 16.0375 14.574 15.8581C15.0072 15.6786 15.3775 15.3748 15.638 14.9849C15.8985 14.595 16.0376 14.1366 16.0376 13.6677C16.0376 13.0389 15.7878 12.4359 15.3432 11.9913C14.8985 11.5467 14.2955 11.2969 13.6667 11.2969ZM13.6667 15.3677C13.3295 15.3677 12.9999 15.2677 12.7195 15.0802C12.4392 14.8928 12.2208 14.6264 12.0919 14.3147C11.963 14.0031 11.9295 13.6602 11.9956 13.3295C12.0617 12.9988 12.2244 12.6952 12.4632 12.457C12.7019 12.2189 13.006 12.0569 13.3368 11.9916C13.6677 11.9263 14.0105 11.9607 14.3218 12.0903C14.6331 12.2199 14.899 12.439 15.0857 12.7198C15.2725 13.0006 15.3717 13.3305 15.3709 13.6677C15.3709 14.1197 15.1914 14.5531 14.8718 14.8727C14.5522 15.1923 14.1187 15.3719 13.6667 15.3719V15.3677Z" fill="#580273"/>
</svg>
