<svg width="24" height="25" viewBox="0 0 24 25" fill="none" xmlns="http://www.w3.org/2000/svg">
<path opacity="0.1" fill-rule="evenodd" clip-rule="evenodd" d="M0 12.6895C0 6.06204 5.37258 0.689453 12 0.689453C18.6274 0.689453 24 6.06204 24 12.6895C24 19.3169 18.6274 24.6895 12 24.6895C5.37258 24.6895 0 19.3169 0 12.6895Z" fill="white"/>
<path fill-rule="evenodd" clip-rule="evenodd" d="M18.4001 12.6802C18.4001 13.113 18.356 13.5452 18.2695 13.9665C18.1851 14.3778 18.0601 14.7816 17.8963 15.1677C17.7363 15.5469 17.5379 15.9123 17.306 16.253C17.0776 16.5916 16.8144 16.9093 16.5253 17.1989C16.2356 17.4872 15.9169 17.7497 15.5784 17.9791C15.2365 18.2094 14.8706 18.4075 14.4912 18.5683C14.1046 18.7312 13.6999 18.856 13.2889 18.9402C12.867 19.027 12.4333 19.0713 11.9998 19.0713C11.566 19.0713 11.1323 19.027 10.711 18.9402C10.2994 18.856 9.89471 18.7312 9.50844 18.5683C9.12905 18.4075 8.76277 18.2094 8.42088 17.9791C8.08243 17.7497 7.76366 17.4872 7.47458 17.1989C7.1852 16.9093 6.92205 16.5916 6.69329 16.253C6.46265 15.9123 6.26388 15.5468 6.10326 15.1677C5.93948 14.7816 5.81418 14.3778 5.72948 13.9665C5.64386 13.5452 5.6001 13.113 5.6001 12.6802C5.6001 12.247 5.64384 11.8139 5.72951 11.3935C5.8142 10.9822 5.9395 10.5778 6.10328 10.1924C6.2639 9.81292 6.46268 9.44719 6.69332 9.1064C6.92207 8.76751 7.18523 8.45043 7.47461 8.16052C7.76369 7.87215 8.08245 7.61036 8.42091 7.3813C8.76279 7.15005 9.12908 6.95191 9.50846 6.79087C9.89474 6.62763 10.2994 6.50251 10.711 6.41889C11.1323 6.33276 11.5661 6.28906 11.9998 6.28906C12.4333 6.28906 12.8671 6.33276 13.2889 6.41889C13.6999 6.50253 14.1046 6.62765 14.4912 6.79087C14.8706 6.95189 15.2366 7.15005 15.5784 7.3813C15.9169 7.61036 16.2357 7.87215 16.5254 8.16052C16.8144 8.45043 17.0776 8.76751 17.306 9.1064C17.5379 9.44719 17.7363 9.81295 17.8963 10.1924C18.0601 10.5778 18.1851 10.9822 18.2695 11.3935C18.356 11.8139 18.4001 12.247 18.4001 12.6802ZM9.66779 7.7436C8.14363 8.4623 7.00607 9.86472 6.65136 11.5549C6.79545 11.5561 9.07307 11.5848 11.6973 10.8886C10.7513 9.2103 9.74061 7.84068 9.66779 7.7436ZM12.1501 11.729C9.33589 12.5703 6.63543 12.5098 6.53856 12.5061C6.53698 12.5647 6.53417 12.6215 6.53417 12.6802C6.53417 14.0823 7.06389 15.3605 7.93456 16.327C7.93268 16.3242 9.4284 13.6744 12.3779 12.722C12.4492 12.6983 12.5217 12.6771 12.5936 12.6565C12.4564 12.3463 12.3067 12.0355 12.1501 11.729ZM15.6094 8.584C14.6471 7.73672 13.3836 7.22278 11.9998 7.22278C11.5557 7.22278 11.1247 7.27646 10.7119 7.3757C10.7938 7.48556 11.8204 8.84552 12.7551 10.5594C14.8174 9.78733 15.5959 8.60396 15.6094 8.584ZM12.9661 13.5608C12.9539 13.5649 12.9418 13.5683 12.9299 13.5727C9.70507 14.6953 8.65196 16.9576 8.64057 16.9823C9.56845 17.7029 10.7323 18.1376 11.9998 18.1376C12.7567 18.1376 13.4777 17.9837 14.1337 17.7051C14.0527 17.2282 13.7352 15.5568 12.9661 13.5608ZM15.054 17.2064C16.2812 16.3794 17.1528 15.0663 17.396 13.5452C17.2835 13.509 15.7543 13.0256 13.9902 13.308C14.7071 15.2753 14.9984 16.8775 15.054 17.2064ZM13.1758 11.3726C13.3027 11.6329 13.4255 11.8978 13.539 12.164C13.5793 12.2595 13.6187 12.3531 13.6571 12.4468C15.5347 12.2108 17.3845 12.6078 17.4635 12.624C17.451 11.3302 16.9876 10.1428 16.2207 9.21313C16.2104 9.22776 15.3338 10.4926 13.1758 11.3726Z" fill="white"/>
</svg>
