<svg width="24" height="25" viewBox="0 0 24 25" fill="none" xmlns="http://www.w3.org/2000/svg">
<path opacity="0.1" fill-rule="evenodd" clip-rule="evenodd" d="M0 12.6895C0 6.06204 5.37258 0.689453 12 0.689453C18.6274 0.689453 24 6.06204 24 12.6895C24 19.3169 18.6274 24.6895 12 24.6895C5.37258 24.6895 0 19.3169 0 12.6895Z" fill="white"/>
<path fill-rule="evenodd" clip-rule="evenodd" d="M12.0007 6.28906C10.2625 6.28906 10.0444 6.29666 9.36174 6.32773C8.6804 6.35893 8.21533 6.4668 7.80839 6.62507C7.38745 6.78853 7.03038 7.0072 6.67464 7.36307C6.31864 7.71881 6.09997 8.07588 5.93597 8.49669C5.7773 8.90376 5.6693 9.36896 5.63863 10.05C5.6081 10.7327 5.6001 10.951 5.6001 12.6891C5.6001 14.4273 5.60783 14.6447 5.63876 15.3274C5.6701 16.0088 5.77797 16.4738 5.9361 16.8808C6.0997 17.3017 6.31837 17.6588 6.67424 18.0145C7.02985 18.3705 7.38692 18.5897 7.80759 18.7532C8.21479 18.9115 8.68 19.0193 9.3612 19.0505C10.0439 19.0816 10.2619 19.0892 11.9999 19.0892C13.7382 19.0892 13.9557 19.0816 14.6383 19.0505C15.3197 19.0193 15.7853 18.9115 16.1925 18.7532C16.6133 18.5897 16.9698 18.3705 17.3254 18.0145C17.6814 17.6588 17.9001 17.3017 18.0641 16.8809C18.2214 16.4738 18.3294 16.0086 18.3614 15.3276C18.3921 14.6449 18.4001 14.4273 18.4001 12.6891C18.4001 10.951 18.3921 10.7328 18.3614 10.0502C18.3294 9.36883 18.2214 8.90376 18.0641 8.49682C17.9001 8.07588 17.6814 7.71881 17.3254 7.36307C16.9694 7.00707 16.6134 6.7884 16.1921 6.62507C15.7841 6.4668 15.3187 6.35893 14.6374 6.32773C13.9547 6.29666 13.7374 6.28906 11.9987 6.28906H12.0007ZM11.4265 7.44239C11.5969 7.44212 11.7871 7.44239 12.0007 7.44239C13.7095 7.44239 13.912 7.44852 14.5868 7.47919C15.2108 7.50772 15.5495 7.61199 15.7751 7.69959C16.0738 7.81559 16.2867 7.95426 16.5106 8.17826C16.7346 8.40227 16.8733 8.6156 16.9895 8.91427C17.0771 9.13961 17.1815 9.47828 17.2099 10.1023C17.2406 10.777 17.2473 10.9796 17.2473 12.6876C17.2473 14.3957 17.2406 14.5983 17.2099 15.273C17.1814 15.897 17.0771 16.2357 16.9895 16.461C16.8735 16.7597 16.7346 16.9724 16.5106 17.1962C16.2866 17.4202 16.0739 17.5589 15.7751 17.6749C15.5498 17.7629 15.2108 17.8669 14.5868 17.8954C13.9122 17.9261 13.7095 17.9328 12.0007 17.9328C10.2917 17.9328 10.0892 17.9261 9.41451 17.8954C8.7905 17.8666 8.45183 17.7624 8.2261 17.6748C7.92743 17.5588 7.71409 17.4201 7.49009 17.1961C7.26609 16.9721 7.12742 16.7593 7.01115 16.4605C6.92355 16.2351 6.81915 15.8965 6.79075 15.2725C6.76008 14.5978 6.75395 14.3951 6.75395 12.686C6.75395 10.977 6.76008 10.7754 6.79075 10.1007C6.81928 9.47668 6.92355 9.13801 7.01115 8.91241C7.12715 8.61374 7.26609 8.4004 7.49009 8.1764C7.71409 7.9524 7.92743 7.81373 8.2261 7.69746C8.4517 7.60946 8.7905 7.50546 9.41451 7.47679C10.0049 7.45012 10.2337 7.44212 11.4265 7.44079V7.44239ZM15.417 8.50507C14.993 8.50507 14.649 8.84867 14.649 9.27281C14.649 9.69682 14.993 10.0408 15.417 10.0408C15.841 10.0408 16.185 9.69682 16.185 9.27281C16.185 8.84881 15.841 8.50507 15.417 8.50507ZM12.0007 9.40241C10.1856 9.40241 8.71401 10.874 8.71401 12.6891C8.71401 14.5042 10.1856 15.9751 12.0007 15.9751C13.8158 15.9751 15.2869 14.5042 15.2869 12.6891C15.2869 10.874 13.8158 9.40241 12.0007 9.40241ZM12.0007 10.5558C13.1788 10.5558 14.134 11.5108 14.134 12.6891C14.134 13.8673 13.1788 14.8225 12.0007 14.8225C10.8224 14.8225 9.86733 13.8673 9.86733 12.6891C9.86733 11.5108 10.8224 10.5558 12.0007 10.5558Z" fill="white"/>
</svg>
