<svg width="14" height="16" viewBox="0 0 14 16" fill="none" xmlns="http://www.w3.org/2000/svg">
<path d="M3.71429 7.10714V4.39286C3.71429 3.49302 4.07175 2.63003 4.70803 1.99374C5.34431 1.35746 6.2073 1 7.10714 1C8.00699 1 8.86997 1.35746 9.50626 1.99374C10.1425 2.63003 10.5 3.49302 10.5 4.39286V7.10714M2.35714 7.10714H11.8571C12.6067 7.10714 13.2143 7.71476 13.2143 8.46429V13.2143C13.2143 13.9638 12.6067 14.5714 11.8571 14.5714H2.35714C1.60761 14.5714 1 13.9638 1 13.2143V8.46429C1 7.71476 1.60761 7.10714 2.35714 7.10714Z" stroke="#FB7106" stroke-linecap="round" stroke-linejoin="round"/>
</svg>
