<svg width="26" height="27" viewBox="0 0 26 27" fill="none" xmlns="http://www.w3.org/2000/svg">
<g clip-path="url(#clip0)">
<path d="M8.32537 13.2115C8.32537 7.21517 12.2547 2.15473 17.635 0.540857C16.4691 0.191153 15.2353 0 13.9577 0C6.78519 0 0.970703 5.91505 0.970703 13.2115C0.970703 20.5084 6.78524 26.423 13.9577 26.423C15.2349 26.423 16.4691 26.2323 17.6351 25.8826C12.2544 24.2691 8.32537 19.2083 8.32537 13.2115Z" fill="#7CBBF6"/>
<path d="M18.018 8.07216C21.1885 8.07216 23.8646 10.2223 24.7177 13.1668C24.9024 12.529 25.0034 11.8536 25.0034 11.1546C25.0034 7.23034 21.8759 4.04925 18.018 4.04883C14.16 4.04883 11.0322 7.22992 11.0322 11.1541C11.0322 11.8531 11.1337 12.5285 11.3187 13.1664C12.1723 10.2223 14.848 8.07258 18.018 8.07216Z" fill="#16D76F"/>
<path d="M20.464 15.503C20.464 17.9018 18.8914 19.9264 16.7388 20.5717C17.2051 20.7117 17.6986 20.788 18.2104 20.788C21.0789 20.788 23.4056 18.4219 23.4056 15.5026C23.4056 12.5833 21.0801 10.2168 18.2104 10.2168C17.6998 10.2168 17.2051 10.2927 16.7388 10.4332C18.8914 11.0788 20.464 13.1035 20.464 15.503Z" fill="#79129A"/>
</g>
<defs>
<clipPath id="clip0">
<rect width="25.974" height="26.423" fill="white"/>
</clipPath>
</defs>
</svg>
