<svg width="27" height="27" viewBox="0 0 27 27" fill="none" xmlns="http://www.w3.org/2000/svg">
<path d="M13.2706 27C20.5998 27 26.5412 20.9558 26.5412 13.5C26.5412 6.04416 20.5998 0 13.2706 0C5.94146 0 0 6.04416 0 13.5C0 20.9558 5.94146 27 13.2706 27Z" fill="#282F65"/>
<path d="M13.2708 23.625C7.7967 23.625 3.31787 19.0688 3.31787 13.5C3.31787 7.93125 7.7967 3.375 13.2708 3.375C18.745 3.375 23.2238 7.93125 23.2238 13.5C23.2238 19.0688 18.745 23.625 13.2708 23.625Z" fill="#F2F2F2"/>
<path d="M13.2706 20.25C9.62114 20.25 6.63525 17.2125 6.63525 13.5C6.63525 9.7875 9.62114 6.75 13.2706 6.75C16.92 6.75 19.9059 9.7875 19.9059 13.5C19.9059 17.2125 16.92 20.25 13.2706 20.25Z" fill="#580273"/>
<path d="M13.2708 16.875C11.4461 16.875 9.95312 15.3562 9.95312 13.5C9.95312 11.6437 11.4461 10.125 13.2708 10.125C15.0955 10.125 16.5884 11.6437 16.5884 13.5C16.5884 15.3562 15.0955 16.875 13.2708 16.875Z" fill="#CDD6E0"/>
<path d="M13.2708 16.875C11.4461 16.875 9.95312 15.3562 9.95312 13.5C9.95312 11.6437 11.4461 10.125 13.2708 10.125C15.0955 10.125 16.5884 11.6437 16.5884 13.5C16.5884 15.3562 15.0955 16.875 13.2708 16.875Z" fill="#FFD15C"/>
<path opacity="0.2" d="M26.4309 15.1864C26.2097 16.8739 25.7121 18.449 24.938 19.9114L24.2191 19.6302L23.2791 17.6052L13.3262 13.949C12.8838 13.7802 12.6626 13.274 12.8285 12.824C12.9944 12.374 13.492 12.149 13.9344 12.3177L23.8873 15.974L25.8779 15.0177L26.4309 15.1864Z" fill="#334A5E"/>
<path d="M22.3387 5.45781L14.2104 13.7266C13.8787 14.0641 13.3257 14.0641 12.9939 13.7266C12.6622 13.3891 12.6622 12.8265 12.9939 12.489L21.1775 4.27656C21.5093 3.93906 22.0622 3.93906 22.394 4.27656C22.6704 4.61406 22.6705 5.12031 22.3387 5.45781Z" fill="#026565"/>
<path d="M23.113 3.48748L20.5142 6.13127V2.64373L23.113 0V3.48748Z" fill="#F79E1B"/>
<path d="M23.9424 6.13206L26.5413 3.48828H23.113L20.5142 6.13206H23.9424Z" fill="#F79E1B"/>
</svg>
