<svg width="281" height="352" viewBox="0 0 281 352" fill="none" xmlns="http://www.w3.org/2000/svg">
<path d="M133.948 351.922C60.1262 304.483 38.3337 206.192 85.4356 132.894C132.501 59.6531 230.961 38.6377 304.783 86.0767L299.349 94.5341C230.186 50.0898 138.018 69.8108 93.9601 138.372C49.8655 206.99 70.2573 298.964 139.42 343.408L133.948 351.922Z" fill="#A0EDD8"/>
<path d="M146.123 332.977C82.757 292.258 64.1316 208.032 104.494 145.221C144.857 82.4105 229.301 64.3381 292.609 105.021L287.175 113.478C228.526 75.7902 150.447 92.4554 113.055 150.643C75.6634 208.83 92.945 286.775 151.594 324.463L146.123 332.977Z" fill="#A0EDD8"/>
<path d="M159.927 311.495C108.496 278.445 93.3357 210.068 126.126 159.042C158.916 108.015 227.41 93.396 278.841 126.446L273.406 134.904C226.692 104.885 164.433 118.173 134.687 164.463C104.904 210.81 118.72 272.906 165.434 302.925L159.927 311.495Z" fill="#A0EDD8"/>
</svg>
