<svg width="81" height="80" viewBox="0 0 81 80" fill="none" xmlns="http://www.w3.org/2000/svg">
<rect x="0.125" width="80" height="80" rx="40" fill="#F4F5F7"/>
<path d="M51.4245 37.5858C49.9158 35.9767 47.9041 34.8757 45.8087 34.4522C44.8867 34.1981 43.9647 34.0287 43.0427 33.944C45.3896 31.1492 44.9705 26.9145 42.2046 24.5431C39.4386 22.1717 35.2477 22.5951 32.9008 25.39C30.5539 28.1849 30.973 32.4195 33.739 34.791C34.2419 35.2144 34.7448 35.5532 35.2477 35.7226V37.5858L33.9066 36.3154C32.7332 35.1297 30.8054 35.1297 29.5481 36.3154C28.3747 37.5011 28.2909 39.3644 29.4643 40.5501L33.3199 45.1235C33.4875 46.3092 33.9066 47.4102 34.4933 48.4266C34.9124 49.1888 35.4992 49.951 36.0859 50.5439V52.1531C36.0859 52.6612 36.4212 53 36.9241 53H48.3232C48.7423 53 49.1614 52.5765 49.1614 52.1531V49.951C50.7539 48.0031 51.5921 45.547 51.5921 43.0909V38.1787C51.6759 37.8399 51.5921 37.6705 51.4245 37.5858ZM32.9846 29.6247C32.9846 26.8298 35.2477 24.6278 38.0137 24.7125C40.7797 24.7125 42.9589 26.9992 42.8751 29.7941C42.8751 31.3185 42.2046 32.6736 41.0311 33.6053V29.3706C40.9883 28.6366 40.6693 27.947 40.1394 27.4431C39.6095 26.9392 38.909 26.6591 38.1813 26.6604C36.6726 26.5757 35.3315 27.8461 35.3315 29.3706V33.7746C33.9066 32.9277 33.0684 31.3185 32.9846 29.6247ZM49.9996 43.0062C50.0834 45.2082 49.329 47.3256 47.9041 49.0194C47.7365 49.1888 47.5689 49.3582 47.5689 49.6123V51.3908H37.846V50.2051C37.846 49.951 37.6784 49.697 37.5108 49.5276C36.9241 49.0194 36.4211 48.4266 36.0021 47.6643C35.4992 46.8174 35.1639 45.8011 34.9963 44.7848C34.9963 44.6154 34.9124 44.446 34.8286 44.2766L30.8054 39.4491C30.5539 39.195 30.3863 38.8562 30.3863 38.4328C30.3863 38.094 30.5539 37.6705 30.8054 37.4164C31.3921 36.9083 32.2303 36.9083 32.817 37.4164L35.2477 39.8726V42.4133L36.8402 41.5664V29.3706C36.9241 28.7777 37.427 28.2696 38.0975 28.3543C38.6842 28.3543 39.2709 28.7777 39.2709 29.3706V39.1103L40.9473 39.4491V35.5532C41.0311 35.4685 41.1149 35.4685 41.1987 35.3838C41.7855 35.3838 42.3722 35.4685 42.9589 35.5532V39.8726L44.3 40.1266V35.7226L45.3058 35.9767C45.7249 36.0614 46.144 36.2307 46.5631 36.4001V40.6348L47.9041 40.8889V36.993C48.6585 37.3318 49.329 37.8399 49.9158 38.4328L49.9996 43.0062Z" fill="#149A9B"/>
</svg>
