<svg width="81" height="80" viewBox="0 0 81 80" fill="none" xmlns="http://www.w3.org/2000/svg">
<rect x="0.125" width="80" height="80" rx="40" fill="#F4F5F7"/>
<path d="M49.5919 24.8206C49.4335 24.7157 49.2416 24.6741 49.0539 24.7039C48.8663 24.7337 48.6967 24.8328 48.5786 24.9816L38.6111 37.409C34.8159 35.7107 30.2043 36.6959 27.4841 40.0875C24.253 44.1159 24.9016 50.0206 28.9301 53.2517C32.9596 56.4835 38.8633 55.8342 42.0943 51.8057C44.9845 48.2022 44.7622 43.1046 41.8037 39.7554L44.0234 36.9879L47.9644 40.1488L47.9679 40.1444C48.1267 40.2541 48.3212 40.2997 48.5123 40.2719C48.7033 40.2441 48.8767 40.145 48.9977 39.9945C49.0043 39.9863 49.0082 39.9776 49.0144 39.9691L49.0179 39.9719L50.5583 38.0513L50.5574 38.0506C50.6781 37.8999 50.7373 37.7091 50.723 37.5165C50.7087 37.3239 50.6219 37.1439 50.4801 37.0128L50.4842 37.0078L46.5432 33.8469L47.8005 32.2793L53.8938 37.1664L53.8976 37.1617C54.0566 37.2713 54.2511 37.3167 54.4422 37.2889C54.6334 37.2612 54.8069 37.1623 54.9282 37.012L54.9329 37.0049L56.4763 35.0806L56.4823 35.0744C56.6025 34.9234 56.6613 34.7325 56.647 34.54C56.6326 34.3474 56.546 34.1674 56.4047 34.0359L56.4084 34.0312L50.3149 29.1438L51.6671 27.4578L51.6665 27.4573C51.7935 27.2984 51.8523 27.0957 51.83 26.8936C51.8078 26.6914 51.7063 26.5064 51.5478 26.379L51.5475 26.3793L49.5964 24.8144L49.5916 24.8204L49.5919 24.8206ZM39.0296 49.3476C37.1766 51.658 33.7881 52.029 31.478 50.1762C29.1677 48.3232 28.7947 44.9352 30.6477 42.6248C32.5005 40.3148 35.8879 39.9444 38.1983 41.7975C40.5089 43.6502 40.8824 47.0375 39.0296 49.3476Z" fill="#149A9B"/>
</svg>
