<svg width="81" height="80" viewBox="0 0 81 80" fill="none" xmlns="http://www.w3.org/2000/svg">
<rect x="0.875" width="80" height="80" rx="40" fill="#F4F5F7"/>
<path d="M39.4117 40.7605L35.5571 36.9774L33.1802 39.3103L39.4117 45.4262L49.0053 36.0106L46.6283 33.6777L39.4117 40.7605Z" fill="#149A9B"/>
<path d="M56.1683 31.0853C56.1404 30.8081 56.0412 30.5423 55.8801 30.3129C55.719 30.0835 55.5012 29.898 55.2471 29.7737L41.799 23.1744C41.5654 23.0597 41.3079 23 41.0467 23C40.7856 23 40.528 23.0597 40.2945 23.1744L26.8463 29.7737C26.593 29.8987 26.3758 30.0845 26.2151 30.3137C26.0544 30.543 25.9552 30.8084 25.9268 31.0853C25.9083 31.2619 24.3114 48.849 40.3651 55.8559C40.5796 55.9509 40.8122 56 41.0476 56C41.2829 56 41.5156 55.9509 41.7301 55.8559C57.7838 48.849 56.1868 31.2635 56.1683 31.0853ZM41.0476 52.5281C29.6688 47.1299 29.1308 35.6092 29.2233 32.298L41.0476 26.4955L52.8635 32.2947C52.9257 35.5762 52.3121 47.1728 41.0476 52.5281Z" fill="#149A9B"/>
</svg>
