<svg width="15" height="15" viewBox="0 0 15 15" fill="none" xmlns="http://www.w3.org/2000/svg">
<path d="M7.49968 0.832031C6.18114 0.832031 4.8922 1.22302 3.79588 1.95557C2.69955 2.68811 1.84506 3.7293 1.34048 4.94747C0.835896 6.16565 0.703874 7.50609 0.961109 8.7993C1.21834 10.0925 1.85328 11.2804 2.78563 12.2127C3.71798 13.1451 4.90587 13.78 6.19908 14.0373C7.49228 14.2945 8.83273 14.1625 10.0509 13.6579C11.2691 13.1533 12.3103 12.2988 13.0428 11.2025C13.7754 10.1062 14.1663 8.81724 14.1663 7.4987C14.1663 5.73059 13.464 4.0349 12.2137 2.78465C10.9635 1.53441 9.26779 0.832031 7.49968 0.832031ZM7.49968 13.332C6.34595 13.332 5.21814 12.9899 4.25885 12.3489C3.29956 11.708 2.55189 10.7969 2.11038 9.73102C1.66887 8.66512 1.55335 7.49223 1.77843 6.36067C2.00351 5.22912 2.55908 4.18971 3.37489 3.37391C4.19069 2.5581 5.23009 2.00253 6.36165 1.77745C7.49321 1.55237 8.6661 1.66789 9.732 2.1094C10.7979 2.55091 11.7089 3.29858 12.3499 4.25787C12.9909 5.21716 13.333 6.34497 13.333 7.4987C13.333 9.04579 12.7184 10.5295 11.6245 11.6235C10.5305 12.7175 9.04677 13.332 7.49968 13.332Z" fill="#580273"/>
<path d="M7.5 3C6.60999 3 5.73996 3.26392 4.99994 3.75839C4.25991 4.25285 3.68314 4.95566 3.34254 5.77792C3.00195 6.60019 2.91283 7.50499 3.08647 8.37791C3.2601 9.25082 3.68869 10.0526 4.31802 10.682C4.94736 11.3113 5.74918 11.7399 6.6221 11.9135C7.49501 12.0872 8.39981 11.9981 9.22208 11.6575C10.0443 11.3169 10.7471 10.7401 11.2416 10.0001C11.7361 9.26004 12 8.39002 12 7.5C11.9989 6.30686 11.5244 5.16291 10.6808 4.31924C9.83709 3.47556 8.69314 3.0011 7.5 3ZM7.5 11.3333C6.74184 11.3333 6.0007 11.1085 5.37032 10.6873C4.73993 10.2661 4.2486 9.6674 3.95846 8.96695C3.66833 8.2665 3.59241 7.49575 3.74033 6.75215C3.88824 6.00856 4.25332 5.32553 4.78943 4.78942C5.32553 4.25332 6.00856 3.88823 6.75216 3.74032C7.49575 3.59241 8.26651 3.66833 8.96696 3.95846C9.66741 4.2486 10.2661 4.73993 10.6873 5.37031C11.1085 6.0007 11.3333 6.74184 11.3333 7.5C11.3322 8.51632 10.928 9.49071 10.2094 10.2094C9.49071 10.928 8.51633 11.3322 7.5 11.3333Z" fill="#580273"/>
<path d="M7.49974 5.12891C7.03083 5.12891 6.57246 5.26795 6.18258 5.52846C5.79269 5.78897 5.48882 6.15925 5.30938 6.59246C5.12993 7.02567 5.08298 7.50237 5.17446 7.96227C5.26594 8.42216 5.49174 8.8446 5.82331 9.17617C6.15488 9.50774 6.57732 9.73354 7.03721 9.82502C7.49711 9.9165 7.97381 9.86955 8.40702 9.6901C8.84023 9.51066 9.21051 9.20678 9.47102 8.8169C9.73153 8.42702 9.87057 7.96865 9.87057 7.49974C9.87057 6.87096 9.62079 6.26792 9.17617 5.82331C8.73156 5.37869 8.12853 5.12891 7.49974 5.12891ZM7.49974 9.19974C7.16251 9.19974 6.83286 9.09968 6.55253 8.91224C6.27219 8.7248 6.05376 8.4584 5.9249 8.14676C5.79604 7.83512 5.76254 7.49226 5.82863 7.16157C5.89472 6.83088 6.05744 6.52724 6.29619 6.28907C6.53494 6.05091 6.83899 5.88893 7.16984 5.82364C7.50069 5.75836 7.84347 5.7927 8.15479 5.92233C8.46611 6.05195 8.73198 6.27103 8.91873 6.55182C9.10549 6.83262 9.20473 7.16251 9.20391 7.49974C9.20391 7.95171 9.02436 8.38517 8.70477 8.70477C8.38518 9.02436 7.95171 9.20391 7.49974 9.20391V9.19974Z" fill="#580273"/>
</svg>
