<svg width="37" height="22" viewBox="0 0 37 22" fill="none" xmlns="http://www.w3.org/2000/svg">
<path d="M10.793 15.418C9.56634 15.418 8.38996 14.9307 7.5226 14.0633C6.65524 13.196 6.16797 12.0196 6.16797 10.793C6.16797 9.56634 6.65524 8.38996 7.5226 7.5226C8.38996 6.65524 9.56634 6.16797 10.793 6.16797C12.0196 6.16797 13.196 6.65524 14.0633 7.5226C14.9307 8.38996 15.418 9.56634 15.418 10.793C15.418 12.0196 14.9307 13.196 14.0633 14.0633C13.196 14.9307 12.0196 15.418 10.793 15.418Z" fill="#149A9B"/>
<path fill-rule="evenodd" clip-rule="evenodd" d="M37 10.7917C37 7.92954 35.863 5.18464 33.8392 3.16081C31.8154 1.13698 29.0705 0 26.2083 0H10.7917C7.92954 4.2649e-08 5.18464 1.13698 3.16081 3.16081C1.13698 5.18464 0 7.92954 0 10.7917C0 13.6538 1.13698 16.3987 3.16081 18.4225C5.18464 20.4464 7.92954 21.5833 10.7917 21.5833H26.2083C29.0705 21.5833 31.8154 20.4464 33.8392 18.4225C35.863 16.3987 37 13.6538 37 10.7917ZM26.2083 3.08333H10.7917C8.74729 3.08333 6.78664 3.89546 5.34105 5.34105C3.89546 6.78665 3.08333 8.74729 3.08333 10.7917C3.08333 12.836 3.89546 14.7967 5.34105 16.2423C6.78664 17.6879 8.74729 18.5 10.7917 18.5H26.2083C28.2527 18.5 30.2134 17.6879 31.6589 16.2423C33.1045 14.7967 33.9167 12.836 33.9167 10.7917C33.9167 8.74729 33.1045 6.78665 31.6589 5.34105C30.2134 3.89546 28.2527 3.08333 26.2083 3.08333Z" fill="#149A9B"/>
</svg>
