<svg width="24" height="25" viewBox="0 0 24 25" fill="none" xmlns="http://www.w3.org/2000/svg">
<path opacity="0.1" fill-rule="evenodd" clip-rule="evenodd" d="M0 12.6895C0 6.06204 5.37258 0.689453 12 0.689453C18.6274 0.689453 24 6.06204 24 12.6895C24 19.3169 18.6274 24.6895 12 24.6895C5.37258 24.6895 0 19.3169 0 12.6895Z" fill="white"/>
<path fill-rule="evenodd" clip-rule="evenodd" d="M11.6406 10.4424L11.6658 10.8576L11.2461 10.8068C9.71843 10.6119 8.38383 9.95093 7.25067 8.84083L6.69668 8.29002L6.55399 8.69677C6.25181 9.60349 6.44487 10.5611 7.0744 11.2051C7.41015 11.561 7.33461 11.6118 6.75544 11.4C6.55399 11.3322 6.37772 11.2814 6.36093 11.3068C6.30218 11.3661 6.50363 12.1372 6.66311 12.4423C6.88134 12.866 7.32621 13.2812 7.81305 13.527L8.22434 13.7219L7.73751 13.7303C7.26746 13.7303 7.25067 13.7388 7.30103 13.9168C7.46891 14.4676 8.13201 15.0523 8.87066 15.3065L9.39108 15.4845L8.93781 15.7556C8.26631 16.1454 7.4773 16.3658 6.68829 16.3827C6.31057 16.3912 6 16.4251 6 16.4505C6 16.5352 7.02404 17.0098 7.61999 17.1962C9.40786 17.747 11.5315 17.5098 13.1263 16.5691C14.2595 15.8997 15.3926 14.5693 15.9214 13.2812C16.2068 12.5948 16.4922 11.3407 16.4922 10.739C16.4922 10.3492 16.5174 10.2984 16.9874 9.83229C17.2644 9.56112 17.5246 9.26453 17.575 9.17979C17.6589 9.01879 17.6505 9.01879 17.2224 9.16284C16.509 9.41707 16.4083 9.38317 16.7608 9.00184C17.021 8.73067 17.3316 8.23918 17.3316 8.09512C17.3316 8.0697 17.2057 8.11207 17.063 8.18833C16.9119 8.27307 16.5761 8.40018 16.3243 8.47645L15.8711 8.62051L15.4598 8.34086C15.2331 8.18833 14.9142 8.01885 14.7463 7.96801C14.3182 7.84937 13.6635 7.86632 13.2774 8.0019C12.2282 8.38323 11.5651 9.36622 11.6406 10.4424Z" fill="white"/>
</svg>
