<svg width="39" height="37" viewBox="0 0 39 37" fill="none" xmlns="http://www.w3.org/2000/svg">
<path fill-rule="evenodd" clip-rule="evenodd" d="M19.5 0C16.2831 0.0100876 13.1759 1.17033 10.7396 3.27113C8.8725 4.87988 7.51969 6.97612 7.17112 9.07969C3.08587 9.98156 0 13.5403 0 17.8376C0 22.8296 4.16325 26.8125 9.21619 26.8125H18.2812V13.9108L13.0504 19.1441C12.8215 19.373 12.5111 19.5015 12.1875 19.5015C11.8639 19.5015 11.5535 19.373 11.3246 19.1441C11.0958 18.9153 10.9672 18.6049 10.9672 18.2812C10.9672 17.9576 11.0958 17.6472 11.3246 17.4184L18.6371 10.1059C18.7503 9.99238 18.8848 9.90233 19.0329 9.84089C19.181 9.77945 19.3397 9.74782 19.5 9.74782C19.6603 9.74782 19.819 9.77945 19.9671 9.84089C20.1152 9.90233 20.2497 9.99238 20.3629 10.1059L27.6754 17.4184C27.9042 17.6472 28.0328 17.9576 28.0328 18.2812C28.0328 18.6049 27.9042 18.9153 27.6754 19.1441C27.4465 19.373 27.1361 19.5015 26.8125 19.5015C26.4889 19.5015 26.1785 19.373 25.9496 19.1441L20.7188 13.9108V26.8125H30.927C35.3486 26.8125 39 23.3269 39 18.9467C39 14.9589 35.9726 11.7098 32.0921 11.1613C31.4998 4.87256 26.0569 0 19.5 0ZM18.2812 35.3438V26.8125H20.7188V35.3438C20.7188 35.667 20.5903 35.977 20.3618 36.2055C20.1332 36.4341 19.8232 36.5625 19.5 36.5625C19.1768 36.5625 18.8668 36.4341 18.6382 36.2055C18.4097 35.977 18.2812 35.667 18.2812 35.3438Z" fill="#149A9B"/>
</svg>
