<svg width="24" height="25" viewBox="0 0 24 25" fill="none" xmlns="http://www.w3.org/2000/svg">
<path opacity="0.1" fill-rule="evenodd" clip-rule="evenodd" d="M0 12.6895C0 6.06204 5.37258 0.689453 12 0.689453C18.6274 0.689453 24 6.06204 24 12.6895C24 19.3169 18.6274 24.6895 12 24.6895C5.37258 24.6895 0 19.3169 0 12.6895Z" fill="white"/>
<path fill-rule="evenodd" clip-rule="evenodd" d="M17.0009 8.56373C17.5517 8.71486 17.9854 9.16017 18.1326 9.72567C18.4001 10.7506 18.4001 12.8891 18.4001 12.8891C18.4001 12.8891 18.4001 15.0275 18.1326 16.0525C17.9854 16.618 17.5517 17.0633 17.0009 17.2145C16.0028 17.4891 12.0001 17.4891 12.0001 17.4891C12.0001 17.4891 7.99741 17.4891 6.99923 17.2145C6.44846 17.0633 6.01472 16.618 5.86752 16.0525C5.6001 15.0275 5.6001 12.8891 5.6001 12.8891C5.6001 12.8891 5.6001 10.7506 5.86752 9.72567C6.01472 9.16017 6.44846 8.71486 6.99923 8.56373C7.99741 8.28906 12.0001 8.28906 12.0001 8.28906C12.0001 8.28906 16.0028 8.28906 17.0009 8.56373ZM10.8001 11.089V15.089L14.0001 13.0891L10.8001 11.089Z" fill="white"/>
</svg>
